<svg width="856" height="171" viewBox="0 0 856 171" fill="none" xmlns="http://www.w3.org/2000/svg">
<path d="M27.8064 2.40872H63.0537L90.0214 168H64L59.2688 135.118V135.591H29.6989L24.9677 168H0.838708L27.8064 2.40872ZM56.1935 113.118L44.6021 31.2689H44.129L32.7742 113.118H56.1935ZM102.646 2.40872H140.968C153.9 2.40872 163.599 5.87825 170.065 12.8173C176.531 19.7564 179.764 29.9284 179.764 43.3334V59.656C179.764 73.061 176.531 83.233 170.065 90.1721C163.599 97.1112 153.9 100.581 140.968 100.581H128.667V168H102.646V2.40872ZM140.968 76.9248C145.227 76.9248 148.381 75.742 150.431 73.3764C152.639 71.0108 153.743 66.9893 153.743 61.3119V41.6775C153.743 36.0001 152.639 31.9786 150.431 29.613C148.381 27.2474 145.227 26.0646 140.968 26.0646H128.667V76.9248H140.968ZM193.897 2.40872H232.219C245.151 2.40872 254.85 5.87825 261.316 12.8173C267.782 19.7564 271.015 29.9284 271.015 43.3334V59.656C271.015 73.061 267.782 83.233 261.316 90.1721C254.85 97.1112 245.151 100.581 232.219 100.581H219.918V168H193.897V2.40872ZM232.219 76.9248C236.477 76.9248 239.631 75.742 241.682 73.3764C243.889 71.0108 244.993 66.9893 244.993 61.3119V41.6775C244.993 36.0001 243.889 31.9786 241.682 29.613C239.631 27.2474 236.477 26.0646 232.219 26.0646H219.918V76.9248H232.219ZM285.147 2.40872H311.169V144.344H353.986V168H285.147V2.40872ZM366.465 2.40872H437.432V26.0646H392.486V69.828H428.206V93.4839H392.486V144.344H437.432V168H366.465V2.40872ZM496.439 168.946C491.708 168.946 487.686 168.631 484.374 168V144.344C486.898 144.975 489.736 145.29 492.891 145.29C498.095 145.29 501.959 144.029 504.482 141.505C507.005 138.824 508.267 134.803 508.267 129.441V2.40872H534.288V128.731C534.288 142.294 531.134 152.387 524.826 159.011C518.676 165.634 509.213 168.946 496.439 168.946ZM590.743 170.366C578.126 170.366 568.506 166.817 561.883 159.72C555.259 152.466 551.947 142.136 551.947 128.731V2.40872H577.969V130.624C577.969 136.301 579.073 140.401 581.28 142.925C583.646 145.448 586.958 146.71 591.216 146.71C595.474 146.71 598.707 145.448 600.915 142.925C603.28 140.401 604.463 136.301 604.463 130.624V2.40872H629.538V128.731C629.538 142.136 626.227 152.466 619.603 159.72C612.979 166.817 603.359 170.366 590.743 170.366ZM648.071 2.40872H674.093V168H648.071V2.40872ZM730.248 170.366C717.789 170.366 708.248 166.817 701.624 159.72C695.158 152.624 691.925 142.609 691.925 129.677V40.7313C691.925 27.7994 695.158 17.7851 701.624 10.6883C708.248 3.59152 717.789 0.0431294 730.248 0.0431294C742.707 0.0431294 752.169 3.59152 758.635 10.6883C765.259 17.7851 768.57 27.7994 768.57 40.7313V58.2366H743.968V39.0754C743.968 28.8245 739.631 23.699 730.958 23.699C722.284 23.699 717.947 28.8245 717.947 39.0754V131.57C717.947 141.663 722.284 146.71 730.958 146.71C739.631 146.71 743.968 141.663 743.968 131.57V106.258H768.57V129.677C768.57 142.609 765.259 152.624 758.635 159.72C752.169 166.817 742.707 170.366 730.248 170.366ZM784.139 2.40872H855.107V26.0646H810.16V69.828H845.881V93.4839H810.16V144.344H855.107V168H784.139V2.40872Z" fill="white"/>
</svg>
