<svg width="986" height="171" viewBox="0 0 986 171" fill="none" xmlns="http://www.w3.org/2000/svg">
<path d="M0.698918 2.40872H39.9677C53.3727 2.40872 63.1505 5.56284 69.301 11.8711C75.4516 18.0216 78.5268 27.5628 78.5268 40.4947V47.1184C78.5268 55.6345 77.1075 62.5736 74.2688 67.9356C71.5878 73.2976 67.4085 77.1614 61.7311 79.5269V80.0001C74.663 84.4158 81.129 95.9284 81.129 114.538V128.731C81.129 141.505 77.7383 151.283 70.9569 158.065C64.3333 164.688 54.5555 168 41.6236 168H0.698918V2.40872ZM36.8924 69.828C42.0967 69.828 45.9605 68.4875 48.4838 65.8065C51.1648 63.1255 52.5053 58.6309 52.5053 52.3227V43.0969C52.5053 37.104 51.4014 32.7671 49.1935 30.0861C47.1433 27.4051 43.8315 26.0646 39.258 26.0646H26.7204V69.828H36.8924ZM41.6236 144.344C46.1971 144.344 49.5878 143.161 51.7957 140.796C54.0035 138.272 55.1075 134.014 55.1075 128.022V113.591C55.1075 106.022 53.767 100.817 51.086 97.9785C48.5627 94.9821 44.3046 93.4839 38.3118 93.4839H26.7204V144.344H41.6236ZM116.446 2.40872H151.694L178.661 168H152.64L147.909 135.118V135.591H118.339L113.608 168H89.4788L116.446 2.40872ZM144.834 113.118L133.242 31.2689H132.769L121.414 113.118H144.834ZM191.286 2.40872H223.931L249.243 101.527H249.716V2.40872H272.899V168H246.168L214.942 47.1184H214.469V168H191.286V2.40872ZM312.347 2.40872H347.594L374.562 168H348.54L343.809 135.118V135.591H314.239L309.508 168H285.379L312.347 2.40872ZM340.734 113.118L329.143 31.2689H328.669L317.315 113.118H340.734ZM387.186 2.40872H419.831L445.143 101.527H445.616V2.40872H468.799V168H442.068L410.842 47.1184H410.369V168H387.186V2.40872ZM508.247 2.40872H543.495L570.462 168H544.441L539.71 135.118V135.591H510.14L505.409 168H481.28L508.247 2.40872ZM536.634 113.118L525.043 31.2689H524.57L513.215 113.118H536.634ZM627.124 168.946C622.393 168.946 618.371 168.631 615.059 168V144.344C617.582 144.975 620.421 145.29 623.575 145.29C628.78 145.29 632.643 144.029 635.167 141.505C637.69 138.824 638.952 134.803 638.952 129.441V2.40872H664.973V128.731C664.973 142.294 661.819 152.387 655.511 159.011C649.36 165.634 639.898 168.946 627.124 168.946ZM721.428 170.366C708.811 170.366 699.191 166.817 692.567 159.72C685.944 152.466 682.632 142.136 682.632 128.731V2.40872H708.653V130.624C708.653 136.301 709.757 140.401 711.965 142.925C714.331 145.448 717.643 146.71 721.901 146.71C726.159 146.71 729.392 145.448 731.6 142.925C733.965 140.401 735.148 136.301 735.148 130.624V2.40872H760.223V128.731C760.223 142.136 756.911 152.466 750.288 159.72C743.664 166.817 734.044 170.366 721.428 170.366ZM778.756 2.40872H804.778V168H778.756V2.40872ZM860.933 170.366C848.474 170.366 838.933 166.817 832.309 159.72C825.843 152.624 822.61 142.609 822.61 129.677V40.7313C822.61 27.7994 825.843 17.7851 832.309 10.6883C838.933 3.59152 848.474 0.0431294 860.933 0.0431294C873.391 0.0431294 882.854 3.59152 889.32 10.6883C895.943 17.7851 899.255 27.7994 899.255 40.7313V58.2366H874.653V39.0754C874.653 28.8245 870.316 23.699 861.642 23.699C852.968 23.699 848.632 28.8245 848.632 39.0754V131.57C848.632 141.663 852.968 146.71 861.642 146.71C870.316 146.71 874.653 141.663 874.653 131.57V106.258H899.255V129.677C899.255 142.609 895.943 152.624 889.32 159.72C882.854 166.817 873.391 170.366 860.933 170.366ZM914.824 2.40872H985.791V26.0646H940.845V69.828H976.566V93.4839H940.845V144.344H985.791V168H914.824V2.40872Z" fill="white"/>
</svg>
