<svg xmlns="http://www.w3.org/2000/svg" width="64" height="64"><g fill="none" fill-rule="evenodd"><path fill="#FAD841" d="M1.776 50.924s-.963 1.47 5.094 2.407c6.058.936 22.096 15.758 47.792-15.712 7.181-8.795 4.337-15.938 5.304-21.356.966-5.418 3.728-8.464.821-9.749-2.906-1.283-4.766-.998-5.16.251-.39 1.248.849 9.538-4.322 10.888-7.157 1.87-16.162 20.312-38.118 27.672 0 0-4.736 1.91-8.151 2.14-3.416.23-3.744 2.437-3.26 3.459"/><path fill="#FAAC28" d="M60.788 6.515c-1.197-.528-2.204-.778-3.017-.818-.224 1.688-1.493 4.128-2.089 7.466-.971 5.447 1.889 12.627-5.33 21.467C24.524 66.26 8.403 51.363 2.315 50.422c-.247-.038-.466-.078-.692-.118.024.229.07.444.154.62 0 0-.964 1.47 5.094 2.406 6.057.938 22.095 15.76 47.79-15.71 7.183-8.796 4.339-15.938 5.305-21.357.965-5.42 3.728-8.465.822-9.748"/><path fill="#454849" d="M3.355 50.751c.382.215 1.379.632 3.76.999 1.173.18 2.465.718 4.102 1.398 7.489 3.111 21.43 8.902 42.207-16.541 4.848-5.937 4.78-11.011 4.723-15.487-.024-1.801-.046-3.505.245-5.138.35-1.962.919-3.625 1.376-4.961.343-1.003.86-2.518.695-2.843 0 0-.061-.085-.32-.198-1.753-.775-2.695-.735-2.99-.66-.019.25-.027.701-.033 1.077-.053 3.062-.161 9.434-5.412 10.803-2.253.59-5.09 3.512-8.68 7.21-6.434 6.63-15.248 15.71-29.335 20.433-.113.048-4.923 1.974-8.55 2.217-.947.064-1.625.322-1.857.708a.574.574 0 0 0-.065.47c.07.161.116.337.134.513m19.625 8.436c-5.564.001-9.934-1.814-12.989-3.083-1.379-.574-2.573-1.07-3.365-1.192-3.742-.579-5.689-1.459-6.307-2.849a2.2 2.2 0 0 1-.193-1.016 3.803 3.803 0 0 1 .4-2.89c.552-.946 1.765-2.109 4.401-2.29 3.118-.21 7.617-2.007 7.664-2.025 13.438-4.51 21.938-13.266 28.146-19.66 3.937-4.059 7.048-7.263 10.164-8.077 2.68-.7 2.966-4.374 3.023-7.762.018-.98.027-1.573.18-2.059a3.013 3.013 0 0 1 1.661-1.852c1.376-.624 3.335-.41 5.668.62 3.26 1.438 2.206 4.524 1.358 7.005-.443 1.296-.946 2.766-1.253 4.486-.238 1.334-.217 2.89-.195 4.535.062 4.774.14 10.715-5.444 17.554C42.496 55.047 31.38 59.187 22.98 59.187"/><path fill="#FEFEFE" d="M16.77 49.569a1.2 1.2 0 0 1-.26-2.37c.092-.022 9.373-2.167 16.437-9.148a1.199 1.199 0 1 1 1.682 1.708c-7.569 7.48-17.193 9.691-17.597 9.78a1.24 1.24 0 0 1-.262.03M37.816 34.86c.612.52.689 1.437.17 2.05-.52.614-1.437.69-2.05.171a1.457 1.457 0 0 1-.169-2.052 1.452 1.452 0 0 1 2.049-.17"/></g></svg>