<svg xmlns="http://www.w3.org/2000/svg" width="64" height="64"><g fill="none" fill-rule="evenodd"><path fill="#FAD841" d="M48.548 33.078c0-10.519-8.525-19.047-19.04-19.047-4.834 0-9.231 1.815-12.589 4.783h-.001c-.536.475-1.043.979-1.523 1.51C6.229 28.8 9.575 41.464 5.07 45.946-.408 51.398.224 59.916 9.374 61.424c20.41 3.369 32.57-13.906 32.57-13.906 3.114-3.392 6.604-9.474 6.604-14.44"/><path fill="#FAAC28" d="M46.964 25.482c0 .063.01.123.01.186 0 5.79-4.072 12.885-7.702 16.839 0 0-13.113 18.606-35.27 16.56 1.266 1.129 3.038 1.973 5.372 2.357 20.41 3.367 32.57-13.906 32.57-13.906 3.113-3.391 6.604-9.474 6.604-14.44 0-2.702-.57-5.268-1.584-7.596"/><path fill="#454849" d="M29.508 15.607a17.43 17.43 0 0 0-12.945 5.773c-5.106 4.73-6.085 10.73-6.951 16.022-.654 4.003-1.22 7.461-3.43 9.66-2.5 2.49-3.579 5.778-2.749 8.374.744 2.324 2.944 3.897 6.198 4.435 19.22 3.174 30.91-13.095 31.027-13.26.038-.056.08-.11.128-.16 3.074-3.349 6.187-9.019 6.187-13.373 0-9.634-7.835-17.471-17.465-17.471M14.694 63.442c-1.784 0-3.643-.145-5.575-.465-4.48-.737-7.565-3.075-8.684-6.579-1.208-3.771.145-8.203 3.526-11.57 1.487-1.48 1.976-4.47 2.542-7.935.9-5.506 2.02-12.36 7.822-17.726.426-.48.982-1.03 1.55-1.533a20.576 20.576 0 0 1 13.633-5.178c11.367 0 20.615 9.25 20.615 20.622 0 5.366-3.59 11.74-6.953 15.434-.986 1.364-11.226 14.928-28.476 14.93"/><path fill="#454849" d="M38.114 17.304a1.574 1.574 0 0 1-1.043-2.757c5.036-4.445 5.798-13.015 5.804-13.1.071-.868.847-1.51 1.698-1.441.866.069 1.512.828 1.442 1.695-.033.402-.86 9.914-6.86 15.209-.3.264-.67.394-1.04.394"/><path fill="#3BB777" d="M62.067 13.747c-14.75-14.062-20.862.503-20.862.503s6.804 14.252 20.862-.503"/><path fill="#229857" d="m62.067 13.747-20.862.503s6.804 14.252 20.862-.503"/><path fill="#454849" d="M42.986 14.204c.789 1.272 2.863 4.066 6.13 4.574 3.156.503 6.742-1.18 10.677-4.976-4.123-3.613-7.8-5.112-10.925-4.454-3.249.68-5.162 3.546-5.882 4.856m7.222 7.81c-.54 0-1.077-.04-1.61-.126-5.877-.937-8.697-6.714-8.814-6.96a1.574 1.574 0 0 1-.031-1.287c.105-.252 2.644-6.16 8.471-7.378 4.503-.945 9.527 1.193 14.93 6.343.303.288.477.685.487 1.103.01.417-.147.822-.433 1.123-4.547 4.774-8.911 7.182-13 7.182"/><path fill="#FEFEFE" d="M13.692 35.951a1.181 1.181 0 0 1-1.17-1.353c.047-.321 1.206-7.92 5.622-11.387a1.181 1.181 0 0 1 1.458 1.859c-3.68 2.893-4.732 9.8-4.743 9.872a1.182 1.182 0 0 1-1.167 1.01m9.827-15.527c.65.551.732 1.526.18 2.177a1.543 1.543 0 0 1-2.177.181 1.546 1.546 0 0 1 1.997-2.358"/></g></svg>