<svg width="914" height="171" viewBox="0 0 914 171" fill="none" xmlns="http://www.w3.org/2000/svg">
<path d="M0.698918 2.40872H37.8387L54.3978 120.925H54.8709L71.43 2.40872H108.57V168H83.9677V42.6237H83.4946L64.5698 168H42.8064L23.8817 42.6237H23.4086V168H0.698918V2.40872ZM148.095 2.40872H183.343L210.31 168H184.289L179.558 135.118V135.591H149.988L145.257 168H121.128L148.095 2.40872ZM176.483 113.118L164.891 31.2689H164.418L153.063 113.118H176.483ZM222.935 2.40872H255.58L280.892 101.527H281.365V2.40872H304.548V168H277.817L246.591 47.1184H246.118V168H222.935V2.40872ZM360.792 170.366C348.175 170.366 338.555 166.817 331.931 159.72C325.308 152.466 321.996 142.136 321.996 128.731V41.6775C321.996 28.2725 325.308 18.0216 331.931 10.9248C338.555 3.67037 348.175 0.0431294 360.792 0.0431294C373.408 0.0431294 383.028 3.67037 389.652 10.9248C396.275 18.0216 399.587 28.2725 399.587 41.6775V55.871H374.985V40.0216C374.985 29.1399 370.49 23.699 361.501 23.699C352.512 23.699 348.017 29.1399 348.017 40.0216V130.624C348.017 141.348 352.512 146.71 361.501 146.71C370.49 146.71 374.985 141.348 374.985 130.624V98.2151H361.974V74.5592H399.587V128.731C399.587 142.136 396.275 152.466 389.652 159.72C383.028 166.817 373.408 170.366 360.792 170.366ZM453.907 170.366C441.133 170.366 431.355 166.738 424.574 159.484C417.792 152.229 414.402 141.979 414.402 128.731V41.6775C414.402 28.4302 417.792 18.1793 424.574 10.9248C431.355 3.67037 441.133 0.0431294 453.907 0.0431294C466.681 0.0431294 476.459 3.67037 483.24 10.9248C490.022 18.1793 493.412 28.4302 493.412 41.6775V128.731C493.412 141.979 490.022 152.229 483.24 159.484C476.459 166.738 466.681 170.366 453.907 170.366ZM453.907 146.71C462.896 146.71 467.391 141.269 467.391 130.387V40.0216C467.391 29.1399 462.896 23.699 453.907 23.699C444.918 23.699 440.423 29.1399 440.423 40.0216V130.387C440.423 141.269 444.918 146.71 453.907 146.71ZM555.047 168.946C550.316 168.946 546.294 168.631 542.983 168V144.344C545.506 144.975 548.345 145.29 551.499 145.29C556.703 145.29 560.567 144.029 563.09 141.505C565.613 138.824 566.875 134.803 566.875 129.441V2.40872H592.897V128.731C592.897 142.294 589.742 152.387 583.434 159.011C577.284 165.634 567.821 168.946 555.047 168.946ZM649.351 170.366C636.734 170.366 627.114 166.817 620.491 159.72C613.867 152.466 610.555 142.136 610.555 128.731V2.40872H636.577V130.624C636.577 136.301 637.681 140.401 639.889 142.925C642.254 145.448 645.566 146.71 649.824 146.71C654.082 146.71 657.315 145.448 659.523 142.925C661.889 140.401 663.071 136.301 663.071 130.624V2.40872H688.147V128.731C688.147 142.136 684.835 152.466 678.211 159.72C671.588 166.817 661.967 170.366 649.351 170.366ZM706.68 2.40872H732.701V168H706.68V2.40872ZM788.856 170.366C776.397 170.366 766.856 166.817 760.232 159.72C753.767 152.624 750.534 142.609 750.534 129.677V40.7313C750.534 27.7994 753.767 17.7851 760.232 10.6883C766.856 3.59152 776.397 0.0431294 788.856 0.0431294C801.315 0.0431294 810.777 3.59152 817.243 10.6883C823.867 17.7851 827.179 27.7994 827.179 40.7313V58.2366H802.577V39.0754C802.577 28.8245 798.24 23.699 789.566 23.699C780.892 23.699 776.555 28.8245 776.555 39.0754V131.57C776.555 141.663 780.892 146.71 789.566 146.71C798.24 146.71 802.577 141.663 802.577 131.57V106.258H827.179V129.677C827.179 142.609 823.867 152.624 817.243 159.72C810.777 166.817 801.315 170.366 788.856 170.366ZM842.747 2.40872H913.715V26.0646H868.769V69.828H904.489V93.4839H868.769V144.344H913.715V168H842.747V2.40872Z" fill="white"/>
</svg>
