<svg width="970" height="171" viewBox="0 0 970 171" fill="none" xmlns="http://www.w3.org/2000/svg">
<path d="M40.3118 170.366C27.5376 170.366 17.7598 166.738 10.9785 159.484C4.19712 152.229 0.806446 141.979 0.806446 128.731V41.6775C0.806446 28.4302 4.19712 18.1793 10.9785 10.9248C17.7598 3.67037 27.5376 0.0431294 40.3118 0.0431294C53.086 0.0431294 62.8637 3.67037 69.6451 10.9248C76.4265 18.1793 79.8171 28.4302 79.8171 41.6775V128.731C79.8171 141.979 76.4265 152.229 69.6451 159.484C62.8637 166.738 53.086 170.366 40.3118 170.366ZM40.3118 146.71C49.301 146.71 53.7957 141.269 53.7957 130.387V40.0216C53.7957 29.1399 49.301 23.699 40.3118 23.699C31.3226 23.699 26.8279 29.1399 26.8279 40.0216V130.387C26.8279 141.269 31.3226 146.71 40.3118 146.71ZM97.4149 2.40872H135.974C149.379 2.40872 159.157 5.56284 165.307 11.8711C171.458 18.0216 174.533 27.5628 174.533 40.4947V50.6668C174.533 67.8567 168.856 78.7384 157.501 83.3119V83.785C163.809 85.6775 168.225 89.5413 170.748 95.3764C173.429 101.212 174.77 109.018 174.77 118.796V147.892C174.77 152.624 174.927 156.487 175.243 159.484C175.558 162.323 176.347 165.161 177.608 168H151.114C150.168 165.319 149.537 162.796 149.221 160.43C148.906 158.065 148.748 153.806 148.748 147.656V117.376C148.748 109.806 147.487 104.523 144.963 101.527C142.598 98.5305 138.418 97.0323 132.426 97.0323H123.436V168H97.4149V2.40872ZM132.899 73.3764C138.103 73.3764 141.967 72.0359 144.49 69.3549C147.171 66.6739 148.512 62.1793 148.512 55.871V43.0969C148.512 37.104 147.408 32.7671 145.2 30.0861C143.15 27.4051 139.838 26.0646 135.264 26.0646H123.436V73.3764H132.899ZM212.931 2.40872H248.179L275.146 168H249.125L244.394 135.118V135.591H214.824L210.093 168H185.964L212.931 2.40872ZM241.319 113.118L229.727 31.2689H229.254L217.899 113.118H241.319ZM287.771 2.40872H320.416L345.728 101.527H346.201V2.40872H369.384V168H342.653L311.427 47.1184H310.954V168H287.771V2.40872ZM425.628 170.366C413.011 170.366 403.391 166.817 396.767 159.72C390.144 152.466 386.832 142.136 386.832 128.731V41.6775C386.832 28.2725 390.144 18.0216 396.767 10.9248C403.391 3.67037 413.011 0.0431294 425.628 0.0431294C438.244 0.0431294 447.864 3.67037 454.488 10.9248C461.111 18.0216 464.423 28.2725 464.423 41.6775V55.871H439.821V40.0216C439.821 29.1399 435.326 23.699 426.337 23.699C417.348 23.699 412.853 29.1399 412.853 40.0216V130.624C412.853 141.348 417.348 146.71 426.337 146.71C435.326 146.71 439.821 141.348 439.821 130.624V98.2151H426.81V74.5592H464.423V128.731C464.423 142.136 461.111 152.466 454.488 159.72C447.864 166.817 438.244 170.366 425.628 170.366ZM481.13 2.40872H552.098V26.0646H507.152V69.828H542.872V93.4839H507.152V144.344H552.098V168H481.13V2.40872ZM611.105 168.946C606.373 168.946 602.352 168.631 599.04 168V144.344C601.563 144.975 604.402 145.29 607.556 145.29C612.76 145.29 616.624 144.029 619.148 141.505C621.671 138.824 622.932 134.803 622.932 129.441V2.40872H648.954V128.731C648.954 142.294 645.8 152.387 639.492 159.011C633.341 165.634 623.879 168.946 611.105 168.946ZM705.408 170.366C692.792 170.366 683.172 166.817 676.548 159.72C669.925 152.466 666.613 142.136 666.613 128.731V2.40872H692.634V130.624C692.634 136.301 693.738 140.401 695.946 142.925C698.312 145.448 701.623 146.71 705.882 146.71C710.14 146.71 713.373 145.448 715.58 142.925C717.946 140.401 719.129 136.301 719.129 130.624V2.40872H744.204V128.731C744.204 142.136 740.892 152.466 734.269 159.72C727.645 166.817 718.025 170.366 705.408 170.366ZM762.737 2.40872H788.758V168H762.737V2.40872ZM844.913 170.366C832.455 170.366 822.913 166.817 816.29 159.72C809.824 152.624 806.591 142.609 806.591 129.677V40.7313C806.591 27.7994 809.824 17.7851 816.29 10.6883C822.913 3.59152 832.455 0.0431294 844.913 0.0431294C857.372 0.0431294 866.835 3.59152 873.301 10.6883C879.924 17.7851 883.236 27.7994 883.236 40.7313V58.2366H858.634V39.0754C858.634 28.8245 854.297 23.699 845.623 23.699C836.949 23.699 832.612 28.8245 832.612 39.0754V131.57C832.612 141.663 836.949 146.71 845.623 146.71C854.297 146.71 858.634 141.663 858.634 131.57V106.258H883.236V129.677C883.236 142.609 879.924 152.624 873.301 159.72C866.835 166.817 857.372 170.366 844.913 170.366ZM898.805 2.40872H969.772V26.0646H924.826V69.828H960.546V93.4839H924.826V144.344H969.772V168H898.805V2.40872Z" fill="white"/>
</svg>
